#define big_icon_width 64
#define big_icon_height 64
static unsigned char big_icon_bits[] = {
   0x00, 0x00, 0x00, 0x00, 0x00, 0x00, 0x00, 0x00, 0x00, 0x00, 0x00, 0x00,
   0x00, 0x00, 0x00, 0x00, 0x00, 0x00, 0x00, 0x00, 0x00, 0x00, 0x00, 0x00,
   0x00, 0x00, 0x00, 0x00, 0x00, 0x00, 0x00, 0x00, 0x00, 0x00, 0x00, 0x00,
   0x00, 0x00, 0x00, 0x00, 0x00, 0x00, 0x00, 0x00, 0x00, 0x00, 0x00, 0x00,
   0x00, 0x00, 0x00, 0x00, 0x00, 0x00, 0x00, 0x00, 0x00, 0x00, 0xf0, 0xff,
   0xc0, 0x03, 0x00, 0x00, 0x00, 0x00, 0xf0, 0xff, 0xc1, 0x03, 0x00, 0x00,
   0x00, 0x00, 0xf0, 0xff, 0xc3, 0x03, 0x00, 0x00, 0x00, 0x00, 0xf0, 0xff,
   0xc3, 0x03, 0x00, 0x00, 0x00, 0x00, 0xf0, 0xc0, 0xc7, 0x03, 0x00, 0x00,
   0x00, 0x00, 0xf0, 0x80, 0xc7, 0x03, 0x00, 0x00, 0x00, 0x00, 0xf0, 0x80,
   0xc7, 0x03, 0x00, 0x00, 0x00, 0x00, 0xf0, 0x80, 0xc7, 0x03, 0x00, 0x00,
   0x00, 0x00, 0xf0, 0x80, 0xc7, 0x03, 0x00, 0x00, 0x00, 0x00, 0xf0, 0xc0,
   0xc7, 0x03, 0x00, 0x00, 0x00, 0x00, 0xf0, 0xe0, 0xc3, 0x03, 0x00, 0x00,
   0x00, 0x00, 0xf0, 0xf0, 0xe3, 0x03, 0x00, 0x00, 0x00, 0x00, 0xf0, 0xf8,
   0xf1, 0x03, 0x00, 0x00, 0x00, 0x00, 0xf0, 0xfc, 0xf8, 0x03, 0x00, 0x00,
   0x00, 0x00, 0xf0, 0x7e, 0xfc, 0x03, 0x00, 0x00, 0x00, 0x00, 0xf0, 0x3f,
   0xfe, 0x03, 0x00, 0x00, 0x00, 0x00, 0xf0, 0x1f, 0xff, 0x03, 0x00, 0x00,
   0x00, 0x00, 0xf0, 0x8f, 0xdf, 0x03, 0x00, 0x00, 0x00, 0x00, 0xf0, 0xc7,
   0xcf, 0x03, 0x00, 0x00, 0x00, 0x00, 0xf0, 0xe3, 0xc7, 0x03, 0x00, 0x00,
   0x00, 0x00, 0xf0, 0xf1, 0xc3, 0x03, 0x00, 0x00, 0x00, 0x00, 0xf0, 0xf0,
   0xc1, 0x03, 0x00, 0x00, 0x00, 0x00, 0xf0, 0xf8, 0xc0, 0x03, 0x00, 0x00,
   0x00, 0x00, 0xf0, 0x78, 0xc0, 0x03, 0x00, 0x00, 0x00, 0x00, 0xf0, 0x78,
   0xc0, 0x03, 0x00, 0x00, 0x00, 0x00, 0xf0, 0x78, 0xc0, 0x03, 0x00, 0x00,
   0x00, 0x00, 0xf0, 0x78, 0xc0, 0x03, 0x00, 0x00, 0x00, 0x00, 0xf0, 0xf8,
   0xc0, 0x03, 0x00, 0x00, 0x00, 0x00, 0xf0, 0xf0, 0xff, 0x03, 0x00, 0x00,
   0x00, 0x00, 0xf0, 0xf0, 0xff, 0x03, 0x00, 0x00, 0x00, 0x00, 0xf0, 0xe0,
   0xff, 0x03, 0x00, 0x00, 0x00, 0x00, 0xf0, 0xc0, 0xff, 0x03, 0x00, 0x00,
   0x00, 0x00, 0x00, 0x00, 0x00, 0x00, 0x00, 0x00, 0x00, 0x00, 0x00, 0x00,
   0x00, 0x00, 0x00, 0x00, 0x00, 0x00, 0x00, 0x00, 0x00, 0x00, 0x00, 0x00,
   0x00, 0x00, 0x00, 0x00, 0x00, 0x00, 0x00, 0x00, 0xc0, 0x23, 0x50, 0x1e,
   0x7c, 0xf0, 0xe0, 0x03, 0x60, 0x26, 0x50, 0x33, 0xc6, 0x98, 0x31, 0x06,
   0x30, 0x2c, 0xd0, 0x61, 0x83, 0x0d, 0x1b, 0x0c, 0x10, 0x28, 0xd0, 0x40,
   0x01, 0x05, 0x0a, 0x08, 0x10, 0x20, 0x50, 0x00, 0x01, 0x05, 0x0a, 0x08,
   0x10, 0x20, 0x50, 0x00, 0x03, 0x04, 0x1a, 0x00, 0x10, 0x20, 0x50, 0x00,
   0x06, 0x04, 0x32, 0x00, 0x10, 0x20, 0x50, 0x00, 0x7c, 0xfc, 0xe3, 0x03,
   0x10, 0x20, 0x50, 0x00, 0xc0, 0x04, 0x00, 0x06, 0x10, 0x20, 0x50, 0x00,
   0x80, 0x05, 0x00, 0x0c, 0x10, 0x20, 0x50, 0x00, 0x01, 0x05, 0x0a, 0x08,
   0x10, 0x28, 0x50, 0x00, 0x01, 0x05, 0x0a, 0x08, 0x30, 0x6c, 0x58, 0x00,
   0x83, 0x0d, 0x1b, 0x0c, 0x60, 0xc6, 0x4c, 0x00, 0xc6, 0x98, 0x31, 0x06,
   0xc0, 0x83, 0x47, 0x00, 0x7c, 0xf0, 0xe0, 0x03, 0x00, 0x00, 0x00, 0x00,
   0x00, 0x00, 0x00, 0x00, 0x00, 0x00, 0x00, 0x00, 0x00, 0x00, 0x00, 0x00,
   0x00, 0x00, 0x00, 0x00, 0x00, 0x00, 0x00, 0x00, 0x00, 0x00, 0x00, 0x00,
   0x00, 0x00, 0x00, 0x00, 0x00, 0x00, 0x00, 0x00, 0x00, 0x00, 0x00, 0x00,
   0x00, 0x00, 0x00, 0x00, 0x00, 0x00, 0x00, 0x00};
