<svg xmlns="http://www.w3.org/2000/svg" xmlns:xlink="http://www.w3.org/1999/xlink" xml:space="preserve" width="36.001" height="36.001" overflow="visible"><linearGradient id="a" x1="-403.467" x2="-402.467" y1="210.758" y2="210.758" gradientTransform="scale(-6.27) rotate(48 36.116 553.172)" gradientUnits="userSpaceOnUse"><stop offset="0" style="stop-color:#29ad29"/><stop offset="1" style="stop-color:#8fe08f"/></linearGradient><linearGradient id="k" x1="-403.467" x2="-402.467" y1="210.623" y2="210.623" gradientTransform="scale(-6.4) rotate(45 56.185 585.926)" gradientUnits="userSpaceOnUse"><stop offset="0" style="stop-color:#ffda2a"/><stop offset="1" style="stop-color:#fffe95"/></linearGradient><path fill="#231f20" fill-rule="evenodd" d="M31.978 34.833a7.423 7.423 0 0 1-1.844.881c-1.536.485-3.079.297-4.474-.439a2.513 2.513 0 0 1-1.318-2.547l.081-.338-.462-.09a5.553 5.553 0 0 1-2.12-1.26c-.9-.85-1.479-1.904-1.657-3.09l-.021-.563-.39-.012.046.31c.078 1.697-.744 3.108-1.758 4.186l-3.141 3.336a2.512 2.512 0 0 1-3.548.105L3.75 28.126a2.496 2.496 0 0 1-.78-1.627l-.45-3.34a2.5 2.5 0 0 1 .678-1.922l2.798-2.969.694-.657-5.16-4.864a2.491 2.491 0 0 1-.75-1.388L.293 7.636a2.506 2.506 0 0 1 .683-1.779L3.623 3.05C5.063 1.52 6.912.7 9.031.803c1.998.095 3.753.924 5.213 2.305 1.108 1.04 1.903 2.274 2.303 3.676l.053.281.18-.234 1.506-1.596a2.502 2.502 0 0 1 1.743-.786l.274.026-.044-.273c-.017-.655.224-1.3.683-1.787L22.45.819c1.325-1.406 3.68-.848 4.23 1.004l1.316 4.41 4.472 1.05a2.49 2.49 0 0 1 1.872 1.876l.498 3.63c.08.69-.124 1.42-.668 2l-1.51 1.602c-.462.49-1.09.766-1.745.788l-.261-.027.04.259c.02.654-.22 1.3-.681 1.788l-.017.018.146.424-.001.204.302.004a5.529 5.529 0 0 1 3.006 1.459c.842.793 1.413 1.753 1.652 2.832l.53 3.81c.054.421.059.854.012 1.302-.174 1.642-.97 3.066-2.09 4.254a8.843 8.843 0 0 1-1.574 1.327z" clip-rule="evenodd"/><path fill="url(#a)" fill-rule="evenodd" d="M24.332 20.494a.37.37 0 0 1-.411-.491l1.683-4.603-3.157-3.756a.37.37 0 0 1 .219-.602l1.828-.321a.367.367 0 0 1 .347.126l1.694 2.012.903-2.471a.367.367 0 0 1 .282-.237l1.829-.322a.37.37 0 0 1 .41.49l-1.684 4.61 3.156 3.749a.37.37 0 0 1-.218.602l-1.834.323a.374.374 0 0 1-.348-.126l-1.686-2.005-.9 2.461a.364.364 0 0 1-.28.236z" clip-rule="evenodd" style="fill:url(#a)" transform="rotate(-36.691 15.299 23.486) scale(1.18237)"/><g transform="rotate(-36.691 13.686 18.621) scale(1.18237)"><defs><path id="b" d="M9.375 1.604h8.924v10.281H9.375z"/></defs><clipPath id="c"><use xlink:href="#b"/></clipPath><linearGradient id="d" x1="-403.467" x2="-402.467" y1="210.637" y2="210.637" gradientTransform="rotate(-130.3 -1616.67 78.231) scale(6.49)" gradientUnits="userSpaceOnUse"><stop offset="0" style="stop-color:#e23904"/><stop offset="1" style="stop-color:#f2ad9b"/></linearGradient><path fill="url(#d)" fill-rule="evenodd" d="m13.002 9.488.947-.167c.598-.105 1.061-.414 1.403-.944.327-.508.44-1.231.266-2.224-.139-.789-.45-1.398-.917-1.85-.451-.436-.95-.591-1.533-.487l-1.131.199zm-1.626 2.361a.37.37 0 0 1-.427-.3L9.41 2.825a.37.37 0 0 1 .3-.428l3.214-.567c1.286-.227 2.427.048 3.385.836.944.778 1.527 1.835 1.759 3.147.231 1.313.032 2.507-.616 3.554-.663 1.072-1.755 1.72-3.212 1.978z" clip-path="url(#c)" clip-rule="evenodd" style="fill:url(#d)"/></g><g transform="rotate(-36.691 13.686 18.621) scale(1.18237)"><defs><path id="e" d="M11.617 11.675h8.635v10.029h-8.635z"/></defs><clipPath id="f"><use xlink:href="#e"/></clipPath><linearGradient id="g" x1="-403.467" x2="-402.467" y1="210.715" y2="210.715" gradientTransform="scale(6.82) rotate(56.7 -7.089 482.34)" gradientUnits="userSpaceOnUse"><stop offset="0" style="stop-color:#f29cff"/><stop offset="1" style="stop-color:#bf00ff"/></linearGradient><path fill="url(#g)" fill-rule="evenodd" d="M16.048 19.655c.117.007.239-.002.367-.024.449-.078.798-.325 1.059-.776.238-.417.309-1.187.095-2.406-.171-.969-.454-1.655-.821-2.098-.335-.404-.753-.559-1.311-.459-1.007.177-1.524 1.039-1.146 3.182.181 1.024.475 1.71.846 2.118.264.291.562.445.911.463zm-.211 2.038c-.885-.03-1.67-.357-2.338-.99-.866-.817-1.409-1.913-1.646-3.254-.236-1.34-.074-2.549.508-3.609.59-1.076 1.517-1.729 2.75-1.945 1.238-.22 2.327.078 3.226.898.879.803 1.43 1.893 1.667 3.239.248 1.408.098 2.648-.493 3.689-.595 1.051-1.526 1.687-2.757 1.903-.316.058-.622.08-.917.069z" clip-path="url(#f)" clip-rule="evenodd" style="fill:url(#g)"/></g><g transform="rotate(-36.691 13.686 18.621) scale(1.18237)"><defs><path id="h" d="M3.108 13.216h8.526v10.222H3.108z"/></defs><clipPath id="i"><use xlink:href="#h"/></clipPath><linearGradient id="j" x1="-403.467" x2="-402.467" y1="210.621" y2="210.621" gradientTransform="rotate(-137 -1696.665 185.598) scale(7)" gradientUnits="userSpaceOnUse"><stop offset="0" style="stop-color:#076bcf"/><stop offset="1" style="stop-color:#91c7fd"/></linearGradient><path fill="url(#j)" fill-rule="evenodd" d="m5.942 17.286 1.554-.272c.315-.058.507-.185.626-.36.127-.187.176-.405.126-.684-.056-.317-.183-.471-.345-.55a1.17 1.17 0 0 0-.736-.091l-1.522.27zm.662 3.752 1.669-.294c.366-.064.593-.203.732-.381.137-.176.192-.393.142-.689a.834.834 0 0 0-.375-.589c-.202-.129-.459-.182-.807-.12l-1.675.296ZM5.11 23.402a.368.368 0 0 1-.427-.3l-1.539-8.725a.37.37 0 0 1 .299-.427l3.4-.6c.599-.106 1.125-.136 1.575-.076.492.064.934.3 1.323.673.407.39.657.885.759 1.465.1.56.022 1.087-.239 1.571l-.391.488.417.183c.133.075.259.163.375.266.453.396.732.91.839 1.523.134.761-.002 1.463-.419 2.084-.438.648-1.185 1.031-2.157 1.203z" clip-path="url(#i)" clip-rule="evenodd" style="fill:url(#j)"/></g><path fill="url(#k)" fill-rule="evenodd" d="M20.007 31.746a4.498 4.498 0 0 1-1.227-.242c-.813-.281-1.418-.844-1.804-1.655a.368.368 0 0 1 .195-.5l1.47-.597a.372.372 0 0 1 .481.205c.24.602.792.9 1.93.7.518-.091.84-.255 1.025-.451.193-.202.244-.39.21-.585a.816.816 0 0 0-.224-.433c-.074-.076-.274-.176-.723-.211l-1.745-.141c-.612-.05-1.116-.147-1.48-.316a2.371 2.371 0 0 1-.942-.81 2.93 2.93 0 0 1-.503-1.212c-.156-.884.05-1.674.623-2.335.562-.648 1.345-1.049 2.313-1.219.806-.143 1.568-.095 2.282.152.733.253 1.273.715 1.587 1.387a.37.37 0 0 1-.185.494l-1.432.634a.37.37 0 0 1-.472-.158c-.25-.449-.667-.651-1.398-.522-.446.079-.71.222-.854.387a.596.596 0 0 0-.162.537c.04.229.25.476 1.062.531l1.549.108c.97.07 1.74.309 2.221.79.436.44.711.968.818 1.575.17.963-.062 1.812-.704 2.509-.627.678-1.5 1.102-2.585 1.293-.457.082-.9.11-1.326.085z" clip-rule="evenodd" style="fill:url(#k)" transform="rotate(-36.691 15.299 23.486) scale(1.18237)"/></svg>