<?xml version="1.0" encoding="UTF-8" standalone="no"?>
<!-- Generator: Adobe Illustrator 12.0.0, SVG Export Plug-In . SVG Version: 6.00 Build 51448)  -->

<svg
   version="1.1"
   id="Layer_1"
   width="36.000999"
   height="36.000999"
   viewBox="0 0 36.000999 36.001"
   overflow="visible"
   enable-background="new 0 0 30.544 36.001"
   xml:space="preserve"
   xmlns:xlink="http://www.w3.org/1999/xlink"
   xmlns="http://www.w3.org/2000/svg"
   xmlns:svg="http://www.w3.org/2000/svg"><defs
   id="defs190" />

<linearGradient
   id="XMLID_50_"
   gradientUnits="userSpaceOnUse"
   x1="-403.4668"
   y1="210.7578"
   x2="-402.4668"
   y2="210.7578"
   gradientTransform="matrix(-4.2,-4.65,4.65,-4.2,-2646.865,-974.9042)">
	<stop
   offset="0"
   style="stop-color:#29AD29"
   id="stop122" />
	<stop
   offset="1"
   style="stop-color:#8FE08F"
   id="stop124" />
</linearGradient>




<linearGradient
   id="XMLID_57_"
   gradientUnits="userSpaceOnUse"
   x1="-403.4668"
   y1="210.623"
   x2="-402.4668"
   y2="210.623"
   gradientTransform="matrix(-4.5,-4.5,4.5,-4.5,-2741.395,-839.3135)">
	<stop
   offset="0"
   style="stop-color:#FFDA2A"
   id="stop180" />
	<stop
   offset="1"
   style="stop-color:#FFFE95"
   id="stop182" />
</linearGradient>
<g
   id="g181"
   transform="matrix(0.94810883,-0.70646107,0.70646107,0.94810883,-11.001851,13.794374)"><path
     fill-rule="evenodd"
     clip-rule="evenodd"
     fill="#231f20"
     d="m 18.51695,35.988 c -0.578,-0.034 -1.146,-0.144 -1.696,-0.335 -1.287,-0.447 -2.238,-1.354 -2.812,-2.558 -0.395,-0.827 -0.205,-1.776 0.393,-2.394 l 0.226,-0.188 -0.268,-0.295 c -0.412,-0.579 -0.679,-1.23 -0.801,-1.926 -0.181,-1.03 -0.041,-2.038 0.437,-2.932 l 0.271,-0.393 -0.258,-0.205 -0.126,0.233 c -0.805,1.191 -2.075,1.732 -3.308,1.951 l -3.816,0.675 c -0.145,0.026 -0.288,0.036 -0.429,0.032 -0.987,-0.027 -1.852,-0.745 -2.03,-1.754 l -1.538,-8.725 c -0.096,-0.538 0.022,-1.067 0.293,-1.498 l 1.384,-2.492 c 0.309,-0.49 0.814,-0.854 1.43,-0.961 l 3.398,-0.599 0.803,-0.095 -1.042,-5.907 c -0.083,-0.468 -0.005,-0.927 0.193,-1.32 l 1.551,-2.771 c 0.313,-0.439 0.79,-0.76 1.362,-0.861 l 3.214,-0.566 c 1.749,-0.31 3.418,0.068 4.803,1.209 1.307,1.074 2.078,2.523 2.371,4.197 0.225,1.266 0.141,2.504 -0.296,3.657 l -0.106,0.218 0.24,-0.069 1.828,-0.321 c 0.561,-0.099 1.127,0.032 1.58,0.348 l 0.172,0.156 0.108,-0.207 c 0.32,-0.453 0.809,-0.769 1.367,-0.867 l 1.828,-0.321 c 1.609,-0.284 2.924,1.284 2.361,2.818 l -1.335,3.656 2.502,2.972 c 0.561,0.665 0.625,1.521 0.321,2.219 l -1.496,2.713 c -0.295,0.509 -0.802,0.901 -1.464,1.019 l -1.834,0.323 c -0.56,0.099 -1.126,-0.031 -1.581,-0.347 l -0.164,-0.15 -0.103,0.196 c -0.318,0.453 -0.807,0.77 -1.366,0.868 l -0.021,0.004 -0.115,0.361 -0.104,0.138 0.203,0.155 c 0.687,0.693 1.132,1.546 1.302,2.509 0.17,0.963 0.072,1.903 -0.311,2.755 l -1.567,2.852 c -0.175,0.313 -0.391,0.609 -0.649,0.889 -0.948,1.026 -2.207,1.589 -3.567,1.829 -0.58,0.101 -1.161,0.14 -1.738,0.105 z"
     id="path120" /><path
     fill-rule="evenodd"
     clip-rule="evenodd"
     fill="url(#XMLID_50_)"
     d="m 24.33195,20.494 c -0.28,0.049 -0.51,-0.224 -0.411,-0.491 l 1.683,-4.603 -3.157,-3.756 c -0.183,-0.218 -0.062,-0.553 0.219,-0.602 l 1.828,-0.321 c 0.13,-0.023 0.262,0.024 0.347,0.126 l 1.694,2.012 0.903,-2.471 c 0.045,-0.124 0.153,-0.215 0.282,-0.237 l 1.829,-0.322 c 0.279,-0.049 0.508,0.225 0.41,0.49 l -1.684,4.61 3.156,3.749 c 0.183,0.218 0.062,0.552 -0.218,0.602 l -1.834,0.323 c -0.13,0.022 -0.262,-0.025 -0.348,-0.126 l -1.686,-2.005 -0.899,2.461 c -0.045,0.124 -0.152,0.214 -0.281,0.236 z"
     id="path127"
     style="fill:url(#XMLID_50_)" /><g
     enable-background="new    "
     id="g144"
     transform="translate(2.72895)">
	<g
   id="g142">
		<defs
   id="defs130">
			<rect
   id="XMLID_40_"
   x="9.375"
   y="1.604"
   width="8.9239998"
   height="10.281" />
		</defs>
		<clipPath
   id="XMLID_51_">
			<use
   xlink:href="#XMLID_40_"
   id="use132" />
		</clipPath>
		
			<linearGradient
   id="XMLID_52_"
   gradientUnits="userSpaceOnUse"
   x1="-403.4668"
   y1="210.6367"
   x2="-402.4668"
   y2="210.6367"
   gradientTransform="matrix(-4.2,-4.95,4.95,-4.2,-2722.5657,-1104.1949)">
			<stop
   offset="0"
   style="stop-color:#E23904"
   id="stop135" />
			<stop
   offset="1"
   style="stop-color:#F2AD9B"
   id="stop137" />
		</linearGradient>
		<path
   clip-path="url(#XMLID_51_)"
   fill-rule="evenodd"
   clip-rule="evenodd"
   fill="url(#XMLID_52_)"
   d="M 13.002,9.488 13.949,9.321 C 14.547,9.216 15.01,8.907 15.352,8.377 15.679,7.869 15.792,7.146 15.618,6.153 15.479,5.364 15.168,4.755 14.701,4.303 14.25,3.867 13.751,3.712 13.168,3.816 l -1.131,0.199 z m -1.626,2.361 c -0.2,0.036 -0.392,-0.1 -0.427,-0.3 L 9.41,2.825 C 9.375,2.624 9.509,2.433 9.71,2.397 L 12.924,1.83 c 1.286,-0.227 2.427,0.048 3.385,0.836 0.944,0.778 1.527,1.835 1.759,3.147 0.231,1.313 0.032,2.507 -0.616,3.554 -0.663,1.072 -1.755,1.72 -3.212,1.978 z"
   id="path140"
   style="fill:url(#XMLID_52_)" />
	</g>
</g><g
     enable-background="new    "
     id="g161"
     transform="translate(2.72895)">
	<g
   id="g159">
		<defs
   id="defs147">
			<rect
   id="XMLID_43_"
   x="11.617"
   y="11.675"
   width="8.6350002"
   height="10.029" />
		</defs>
		<clipPath
   id="XMLID_53_">
			<use
   xlink:href="#XMLID_43_"
   id="use149" />
		</clipPath>
		
			<linearGradient
   id="XMLID_54_"
   gradientUnits="userSpaceOnUse"
   x1="-403.4668"
   y1="210.7148"
   x2="-402.4668"
   y2="210.7148"
   gradientTransform="matrix(3.75,5.7,-5.7,3.75,2727.5591,1522.6085)">
			<stop
   offset="0"
   style="stop-color:#F29CFF"
   id="stop152" />
			<stop
   offset="1"
   style="stop-color:#BF00FF"
   id="stop154" />
		</linearGradient>
		<path
   clip-path="url(#XMLID_53_)"
   fill-rule="evenodd"
   clip-rule="evenodd"
   fill="url(#XMLID_54_)"
   d="m 16.048,19.655 c 0.117,0.007 0.239,-0.002 0.367,-0.024 0.449,-0.078 0.798,-0.325 1.059,-0.776 0.238,-0.417 0.309,-1.187 0.095,-2.406 -0.171,-0.969 -0.454,-1.655 -0.821,-2.098 -0.335,-0.404 -0.753,-0.559 -1.311,-0.459 -1.007,0.177 -1.524,1.039 -1.146,3.182 0.181,1.024 0.475,1.71 0.846,2.118 0.264,0.291 0.562,0.445 0.911,0.463 z m -0.211,2.038 c -0.885,-0.03 -1.67,-0.357 -2.338,-0.99 -0.866,-0.817 -1.409,-1.913 -1.646,-3.254 -0.236,-1.34 -0.074,-2.549 0.508,-3.609 0.59,-1.076 1.517,-1.729 2.75,-1.945 1.238,-0.22 2.327,0.078 3.226,0.898 0.879,0.803 1.43,1.893 1.667,3.239 0.248,1.408 0.098,2.648 -0.493,3.689 -0.595,1.051 -1.526,1.687 -2.757,1.903 -0.316,0.058 -0.622,0.08 -0.917,0.069 z"
   id="path157"
   style="fill:url(#XMLID_54_)" />
	</g>
</g><g
     enable-background="new    "
     id="g178"
     transform="translate(2.72895)">
	<g
   id="g176">
		<defs
   id="defs164">
			<rect
   id="XMLID_46_"
   x="3.108"
   y="13.216"
   width="8.526"
   height="10.222" />
		</defs>
		<clipPath
   id="XMLID_55_">
			<use
   xlink:href="#XMLID_46_"
   id="use166" />
		</clipPath>
		
			<linearGradient
   id="XMLID_56_"
   gradientUnits="userSpaceOnUse"
   x1="-403.4668"
   y1="210.62109"
   x2="-402.4668"
   y2="210.62109"
   gradientTransform="matrix(-5.1,-4.8,4.8,-5.1,-3060.0747,-842.6082)">
			<stop
   offset="0"
   style="stop-color:#076BCF"
   id="stop169" />
			<stop
   offset="1"
   style="stop-color:#91C7FD"
   id="stop171" />
		</linearGradient>
		<path
   clip-path="url(#XMLID_55_)"
   fill-rule="evenodd"
   clip-rule="evenodd"
   fill="url(#XMLID_56_)"
   d="M 5.942,17.286 7.496,17.014 C 7.811,16.956 8.003,16.829 8.122,16.654 8.249,16.467 8.298,16.249 8.248,15.97 8.192,15.653 8.065,15.499 7.903,15.42 7.687,15.315 7.445,15.28 7.167,15.329 l -1.522,0.27 z m 0.662,3.752 1.669,-0.294 C 8.639,20.68 8.866,20.541 9.005,20.363 9.142,20.187 9.197,19.97 9.147,19.674 9.098,19.401 8.971,19.214 8.772,19.085 8.57,18.956 8.313,18.903 7.965,18.965 L 6.29,19.261 Z M 5.11,23.402 C 4.909,23.437 4.717,23.303 4.683,23.102 L 3.144,14.377 C 3.108,14.178 3.243,13.985 3.443,13.95 l 3.4,-0.6 c 0.599,-0.106 1.125,-0.136 1.575,-0.076 0.492,0.064 0.934,0.3 1.323,0.673 0.407,0.39 0.657,0.885 0.759,1.465 0.1,0.56 0.022,1.087 -0.239,1.571 l -0.391,0.488 0.417,0.183 c 0.133,0.075 0.259,0.163 0.375,0.266 0.453,0.396 0.732,0.91 0.839,1.523 0.134,0.761 -0.002,1.463 -0.419,2.084 -0.438,0.648 -1.185,1.031 -2.157,1.203 z"
   id="path174"
   style="fill:url(#XMLID_56_)" />
	</g>
</g><path
     fill-rule="evenodd"
     clip-rule="evenodd"
     fill="url(#XMLID_57_)"
     d="m 20.00695,31.746 c -0.426,-0.025 -0.835,-0.105 -1.227,-0.242 -0.813,-0.281 -1.418,-0.844 -1.804,-1.655 -0.092,-0.191 -0.002,-0.421 0.195,-0.5 l 1.47,-0.597 c 0.189,-0.075 0.405,0.017 0.481,0.205 0.24,0.602 0.792,0.9 1.93,0.7 0.518,-0.091 0.84,-0.255 1.025,-0.451 0.193,-0.202 0.244,-0.39 0.211,-0.585 -0.029,-0.163 -0.102,-0.305 -0.225,-0.433 -0.074,-0.076 -0.274,-0.176 -0.723,-0.211 l -1.745,-0.141 c -0.612,-0.05 -1.116,-0.147 -1.479,-0.316 -0.373,-0.172 -0.688,-0.448 -0.943,-0.81 -0.258,-0.361 -0.425,-0.767 -0.503,-1.212 -0.156,-0.884 0.05,-1.674 0.623,-2.335 0.562,-0.648 1.345,-1.049 2.313,-1.219 0.806,-0.143 1.568,-0.095 2.282,0.152 0.733,0.253 1.273,0.715 1.587,1.387 0.087,0.187 0.004,0.41 -0.185,0.494 l -1.432,0.634 c -0.174,0.077 -0.379,0.009 -0.472,-0.158 -0.25,-0.449 -0.667,-0.651 -1.398,-0.522 -0.446,0.079 -0.71,0.222 -0.854,0.387 -0.151,0.169 -0.197,0.338 -0.162,0.537 0.041,0.229 0.25,0.476 1.062,0.531 l 1.549,0.108 c 0.97,0.07 1.74,0.309 2.221,0.79 0.436,0.44 0.711,0.968 0.818,1.575 0.17,0.963 -0.062,1.812 -0.704,2.509 -0.627,0.678 -1.5,1.102 -2.585,1.293 -0.457,0.082 -0.9,0.11 -1.326,0.085 z"
     id="path185"
     style="fill:url(#XMLID_57_)" /></g>
</svg>
